<svg width="21" height="21" viewBox="0 0 21 21" fill="none" xmlns="http://www.w3.org/2000/svg">
<path fill-rule="evenodd" clip-rule="evenodd" d="M4.49471 3.63452C3.06946 3.63452 1.91406 4.78992 1.91406 6.21517V14.8173C1.91406 16.2426 3.06946 17.398 4.49471 17.398H16.5377C17.963 17.398 19.1184 16.2426 19.1184 14.8173V6.21517C19.1184 4.78992 17.963 3.63452 16.5377 3.63452H4.49471ZM3.71304 5.85554C3.84921 5.56006 4.14801 5.35495 4.49471 5.35495H16.5377C16.8844 5.35495 17.1832 5.56006 17.3194 5.85554L11.0443 10.7361C10.7337 10.9777 10.2987 10.9777 9.98809 10.7361L3.71304 5.85554ZM3.63449 7.974V12.9807L6.74212 10.391L3.63449 7.974ZM3.7058 15.1608C3.83841 15.4649 4.14173 15.6775 4.49471 15.6775H16.5377C16.8907 15.6775 17.194 15.4649 17.3266 15.1608L12.9003 11.4722L12.1006 12.0942C11.1687 12.819 9.86375 12.819 8.93185 12.0942L8.13215 11.4722L3.7058 15.1608ZM17.3979 12.9807V7.974L14.2903 10.391L17.3979 12.9807Z" fill="#141313"/>
</svg>
