<svg width="21" height="21" viewBox="0 0 21 21" fill="none" xmlns="http://www.w3.org/2000/svg">
<path fill-rule="evenodd" clip-rule="evenodd" d="M4.43273 4.00342C5.94444 2.49172 8.3954 2.49172 9.90711 4.00342C11.4188 5.51513 11.4188 7.96609 9.90711 9.4778C9.34442 10.0405 8.6516 10.3937 7.92552 10.5375L10.0639 12.6759C10.2077 11.9498 10.5609 11.257 11.1236 10.6943C12.6353 9.18262 15.0863 9.18262 16.598 10.6943C18.1097 12.206 18.1097 14.657 16.598 16.1687C15.1891 17.5776 12.9643 17.6734 11.4445 16.4561L11.4278 16.4728L11.1236 16.1687L4.43273 9.4778L4.1286 9.17367L4.14531 9.15696C2.92802 7.63709 3.02383 5.41233 4.43273 4.00342ZM12.3402 14.9522C13.18 15.792 14.5416 15.792 15.3815 14.9522C16.2213 14.1123 16.2213 12.7507 15.3815 11.9109C14.5416 11.071 13.18 11.071 12.3402 11.9109C11.5003 12.7507 11.5003 14.1123 12.3402 14.9522ZM8.69058 8.26127C7.85074 9.10111 6.4891 9.10111 5.64926 8.26127C4.80943 7.42143 4.80943 6.05979 5.64926 5.21995C6.4891 4.38011 7.85074 4.38011 8.69058 5.21995C9.53042 6.05979 9.53042 7.42143 8.69058 8.26127Z" fill="#141313"/>
</svg>
